<svg xmlns="http://www.w3.org/2000/svg" viewBox="0 0 352 32" width="352" height="32"><g><path d="M29.75 12h-6.33l-6.194-8.637c-.275-.275-.688-.457-1.1-.457s-.827-.003-1.103.41L8.625 12H2.5c-.825 0-1.5.926-1.5 1.75v.672l3.503 12.673C4.778 28.195 5.94 29 7.18 29h17.89c1.24 0 2.277-.666 2.552-1.905L31 14.422v-.67c0-.827-.425-1.752-1.25-1.752zM12 26H8V16h4v10zm4.125-19.797L20.597 12h-8.945l4.473-5.797zM18 26h-4V16h4v10zm6 0h-4V16h4v10z" fill="#fff"/></g><g transform="translate(32)"><path d="M30 5h-4V1h-5.984L20 5h-8V1H6v4H2C.9 5 0 5.9 0 7v23c0 1.1.9 2 2 2h28c1.1 0 2-.9 2-2V7c0-1.1-.9-2-2-2zM8 3h2v6H8V3zm3 26H3v-5h8v5zm0-6H3v-5h8v5zm0-6H3v-5h8v5zm9 12h-8v-5h8v5zm0-6h-8v-5h8v5zm0-6h-8v-5h8v5zm2-14h2v6h-2V3zm7 26h-8v-5h8v5zm0-6h-8v-5h8v5zm0-6h-8v-5h8v5z" fill="#fff"/></g><g transform="translate(64)"><path d="M8 17.23V13h4V8.58c0-2.086.99-3.705 2.156-4.855S17.05 2 18.99 2c1.65 0 3.01.067 4.01.2V7h-2.582c-.965 0-1.858.023-2.194.427S18 8.257 18 9.067V13h4.89l-.655 4H18v13h-6V17H8v.23z" fill="#fff"/></g><g transform="translate(96)"><g><g fill="#fff"><path d="M4 17.667V30h8V19h8v11h8V17.667l-12-9.31zM16 2L0 15l1.958 2L16 6l14 11 2-2z"/></g></g></g><g transform="translate(128)"><path d="M2 6c0-1 .304-1.57.912-2.142s1.402-.846 2.38-.846 1.765.293 2.355.865c.59.573.89 1.3.903 2.172.012.86-.286 1.54-.894 2.12-.608.577-1.407.83-2.398.83h-.035c-.967 0-1.747-.277-2.337-.855S2 7 2 6zm0 24V11h7v19H2zm10-.08C12.027 25.014 12 11 12 11h6v3h.074c.248 0 .502-.626.762-.92.26-.296.61-.56 1.05-.903s.978-.583 1.615-.774c.64-.19 1.348-.272 2.13-.272 2.116 0 3.986.706 5.273 2.1S31 16.676 31 19.368V30h-6v-9.932c0-1.29-.473-2.302-.975-3.032s-1.396-1.097-2.46-1.097c-.78 0-1.49.21-2.015.634-.526.424-1.002.95-1.262 1.576-.137.37-.288.868-.288 1.494V30h-6v-.08z" fill="#fff"/></g><g transform="translate(160)"><g><g fill="#fff"><path d="M2 4h28v5H2zm0 10h28v5H2zm0 10h28v5H2z"/></g></g></g><g transform="translate(192)"><path d="M1 12.594c0-1.572.393-3.144.983-4.52S3.36 5.324 4.538 4.34s2.358-1.965 3.734-2.555S11.022 1 12.594 1s3.144.393 4.52.983 2.75 1.376 3.734 2.555 1.965 2.358 2.555 3.734c.59 1.376.983 2.948.983 4.52 0 2.358-.59 4.716-1.965 6.68l8.41 8.34L27.638 31l-8.362-8.385c-1.965 1.376-4.127 1.965-6.68 1.965-1.573 0-3.145-.393-4.52-.983-1.377-.59-2.752-1.376-3.735-2.555-.983-1.18-1.77-2.358-2.358-3.93C1.392 15.738 1 14.166 1 12.594zm4.323 0c0 1.965.786 3.734 2.162 5.306s3.144 2.162 5.306 2.162 3.736-.786 5.308-2.162c1.18-1.376 1.965-3.144 1.965-5.306s-.786-3.734-2.162-5.11c-1.57-1.57-3.143-2.16-5.305-2.16s-3.734.59-5.11 2.16-2.16 3.145-2.16 5.11z" fill="#fff"/></g><g transform="translate(224)"><g><g><path d="M30 24.402L24.402 30 16 21.597 7.595 30 2 24.402 10.403 16 2 7.595 7.596 2 16 10.403 24.4 2 30 7.596 21.597 16 30 24.4zm0 0" fill="#fff"/></g></g></g><g transform="translate(256)"><path d="M6 12h20L16 22 6 12z" fill="#fff"/></g><g transform="translate(288)"><path d="M26 22H6l10-10 10 10z" fill="#fff"/></g><g transform="translate(320)"><path d="M2 26.507c.415.05.877.076 1.386.076 2.665 0 5.04-.872 7.125-2.615-1.242-.025-2.355-.433-3.34-1.223-.982-.79-1.657-1.797-2.024-3.022.39.063.752.095 1.084.095.508 0 1.012-.07 1.51-.21-1.328-.29-2.495-.994-3.365-2.112C3.505 16.38 3 15.08 3 13.602v-.076c1 .48 1.74.74 2.663.777-.782-.556-1.37-1.283-1.83-2.18-.463-.896-.677-1.868-.676-2.917 0-1.112.27-2.14.79-3.09C5.382 8 7.13 9.506 9.187 10.636s4.256 1.76 6.6 1.888c-.094-.48-.14-.948-.14-1.402 0-1.692.56-3.135 1.68-4.33S19.798 5 21.385 5c1.66 0 3.056.644 4.192 1.933 1.29-.265 2.505-.758 3.642-1.478-.44 1.453-1.28 2.577-2.524 3.373C27.796 8.7 28.9 8.386 30 7.88c-.794 1.238-1.753 2.293-2.878 3.164.012.177.018.442.018.796 0 1.642-.225 3.28-.675 4.918s-1.134 3.206-2.052 4.71c-.918 1.502-2.01 2.832-3.278 3.988-1.267 1.156-2.795 2.078-4.583 2.766-1.788.688-3.7 1.033-5.738 1.033-3.21 0-6.147-.916-8.812-2.748H2z" fill="#fff"/></g></svg>