<svg version="1.1" xmlns="http://www.w3.org/2000/svg" xmlns:xlink="http://www.w3.org/1999/xlink" width="404" height="28" viewBox="0 0 404 28">
<g transform="translate(0 0)">
	<path d="M0 6.5q0-1.117 0.434-2.137t1.172-1.758 1.758-1.172 2.137-0.434 2.137 0.434 1.758 1.172 1.172 1.758 0.434 2.137q0 1.719-0.969 3.117l2.68 2.68q0.289 0.289 0.289 0.703 0 0.406-0.297 0.703t-0.703 0.297q-0.422 0-0.703-0.297l-2.68-2.672q-1.398 0.969-3.117 0.969-1.117 0-2.137-0.434t-1.758-1.172-1.172-1.758-0.434-2.137zM2 6.5q0 1.445 1.027 2.473t2.473 1.027 2.473-1.027 1.027-2.473-1.027-2.473-2.473-1.027-2.473 1.027-1.027 2.473z" fill="#333333"></path>
</g>
<g transform="translate(33 0)">
	<path d="M0.945 7.25q0-0.312 0.219-0.531l1.062-1.062q0.219-0.219 0.531-0.219t0.531 0.219l2.297 2.305 5.125-5.133q0.219-0.219 0.531-0.219t0.531 0.219l1.062 1.062q0.219 0.219 0.219 0.531t-0.219 0.531l-6.719 6.719q-0.219 0.219-0.531 0.219t-0.531-0.219l-3.891-3.891q-0.219-0.219-0.219-0.531z" fill="#333333"></path>
</g>
<g transform="translate(67 0)">
	<path d="M0.859 10.328q0-0.312 0.219-0.531l2.297-2.297-2.297-2.297q-0.219-0.219-0.219-0.531t0.219-0.531l1.062-1.062q0.219-0.219 0.531-0.219t0.531 0.219l2.297 2.297 2.297-2.297q0.219-0.219 0.531-0.219t0.531 0.219l1.062 1.062q0.219 0.219 0.219 0.531t-0.219 0.531l-2.297 2.297 2.297 2.297q0.219 0.219 0.219 0.531t-0.219 0.531l-1.062 1.062q-0.219 0.219-0.531 0.219t-0.531-0.219l-2.297-2.297-2.297 2.297q-0.219 0.219-0.531 0.219t-0.531-0.219l-1.062-1.062q-0.219-0.219-0.219-0.531z" fill="#333333"></path>
</g>
<g transform="translate(98 0)">
	<path d="M0 11.25v-4.5q0-0.312 0.219-0.531t0.531-0.219h0.25v-1.5q0-1.438 1.031-2.469t2.469-1.031 2.469 1.031 1.031 2.469v1.5h0.25q0.312 0 0.531 0.219t0.219 0.531v4.5q0 0.312-0.219 0.531t-0.531 0.219h-7.5q-0.312 0-0.531-0.219t-0.219-0.531zM2.5 6h4v-1.5q0-0.828-0.586-1.414t-1.414-0.586-1.414 0.586-0.586 1.414v1.5z" fill="#333333"></path>
</g>
<g transform="translate(127 0)">
	<path d="M0.125 11.523l6-11q0.133-0.242 0.367-0.383t0.508-0.141 0.508 0.141 0.367 0.383l6 11q0.273 0.492-0.016 0.984-0.133 0.227-0.363 0.359t-0.496 0.133h-12q-0.266 0-0.496-0.133t-0.363-0.359q-0.289-0.492-0.016-0.984zM5.875 4.25l0.133 3.57q0 0.078 0.078 0.129t0.187 0.051h1.445q0.109 0 0.184-0.051t0.082-0.129l0.141-3.586q0-0.094-0.078-0.148-0.102-0.086-0.187-0.086h-1.719q-0.086 0-0.187 0.086-0.078 0.055-0.078 0.164zM6 10.742q0 0.109 0.074 0.184t0.176 0.074h1.5q0.102 0 0.176-0.074t0.074-0.184v-1.484q0-0.109-0.074-0.184t-0.176-0.074h-1.5q-0.102 0-0.176 0.074t-0.074 0.184v1.484z" fill="#333333"></path>
</g>
<g transform="translate(161 0)">
	<path d="M0.344 10.867q0.273 0.031 0.609 0.031 1.758 0 3.133-1.078-0.82-0.016-1.469-0.504t-0.891-1.246q0.258 0.039 0.477 0.039 0.336 0 0.664-0.086-0.875-0.18-1.449-0.871t-0.574-1.605v-0.031q0.531 0.297 1.141 0.32-0.516-0.344-0.82-0.898t-0.305-1.203q0-0.688 0.344-1.273 0.945 1.164 2.301 1.863t2.902 0.777q-0.062-0.297-0.062-0.578 0-1.047 0.738-1.785t1.785-0.738q1.094 0 1.844 0.797 0.852-0.164 1.602-0.609-0.289 0.898-1.109 1.391 0.727-0.078 1.453-0.391-0.523 0.766-1.266 1.305 0.008 0.109 0.008 0.328 0 1.016-0.297 2.027t-0.902 1.941-1.441 1.645-2.016 1.141-2.523 0.426q-2.117 0-3.875-1.133z" fill="#55acee"></path>
</g>
<g transform="translate(194 0)">
	<path d="M0.742 7.070v-2.313h1.992v-1.703q0-1.453 0.813-2.254t2.164-0.801q1.148 0 1.781 0.094v2.062h-1.227q-0.672 0-0.906 0.281t-0.234 0.844v1.477h2.289l-0.305 2.313h-1.984v5.93h-2.391v-5.93h-1.992z" fill="#333333"></path>
</g>
<g transform="translate(222 0)">
	<path d="M0 11.5v-1q0-0.203 0.148-0.352t0.352-0.148h11q0.203 0 0.352 0.148t0.148 0.352v1q0 0.203-0.148 0.352t-0.352 0.148h-11q-0.203 0-0.352-0.148t-0.148-0.352zM0 7.5v-1q0-0.203 0.148-0.352t0.352-0.148h11q0.203 0 0.352 0.148t0.148 0.352v1q0 0.203-0.148 0.352t-0.352 0.148h-11q-0.203 0-0.352-0.148t-0.148-0.352zM0 3.5v-1q0-0.203 0.148-0.352t0.352-0.148h11q0.203 0 0.352 0.148t0.148 0.352v1q0 0.203-0.148 0.352t-0.352 0.148h-11q-0.203 0-0.352-0.148t-0.148-0.352z" fill="#333333"></path>
</g>
<g transform="translate(256 0)">
	<path d="M0 11.75v-6.203q0.344 0.383 0.789 0.68 2.828 1.922 3.883 2.695 0.445 0.328 0.723 0.512t0.738 0.375 0.859 0.191h0.016q0.398 0 0.859-0.191t0.738-0.375 0.723-0.512q1.328-0.961 3.891-2.695 0.445-0.305 0.781-0.68v6.203q0 0.516-0.367 0.883t-0.883 0.367h-11.5q-0.516 0-0.883-0.367t-0.367-0.883zM0 3.422q0-0.609 0.324-1.016t0.926-0.406h11.5q0.508 0 0.879 0.367t0.371 0.883q0 0.617-0.383 1.18t-0.953 0.961q-2.937 2.039-3.656 2.539-0.078 0.055-0.332 0.238t-0.422 0.297-0.406 0.254-0.449 0.211-0.391 0.070h-0.016q-0.18 0-0.391-0.070t-0.449-0.211-0.406-0.254-0.422-0.297-0.332-0.238q-0.711-0.5-2.047-1.426t-1.602-1.113q-0.484-0.328-0.914-0.902t-0.43-1.066z" fill="#333333"></path>
</g>
<g transform="translate(290 0)">
	<path d="M0 2.492q0-0.578 0.402-0.957t1.051-0.379 1.039 0.379 0.398 0.957q0.008 0.57-0.395 0.953t-1.059 0.383h-0.016q-0.641 0-1.031-0.383t-0.391-0.953zM0.148 12.625v-7.742h2.578v7.742h-2.578zM4.148 12.625q0.016-3.117 0.016-5.055t-0.008-2.313l-0.008-0.375h2.57v1.125h-0.016q0.156-0.25 0.32-0.438t0.441-0.406 0.68-0.34 0.895-0.121q1.336 0 2.148 0.887t0.813 2.598v4.437h-2.57v-4.141q0-0.82-0.316-1.285t-0.988-0.465q-0.492 0-0.824 0.27t-0.496 0.668q-0.086 0.234-0.086 0.633v4.32h-2.57z" fill="#333333"></path>
</g>
<g transform="translate(324 0)">
	<path d="M0 7q0-0.516 0.367-0.883t0.883-0.367 0.883 0.367 0.367 0.883-0.367 0.883-0.883 0.367-0.883-0.367-0.367-0.883zM1.375 3.5q0-0.57 0.402-0.973t0.973-0.402 0.973 0.402 0.402 0.973-0.402 0.973-0.973 0.402-0.973-0.402-0.402-0.973zM1.625 10.5q0-0.469 0.328-0.797t0.797-0.328q0.461 0 0.793 0.328t0.332 0.797-0.332 0.797-0.793 0.328q-0.469 0-0.797-0.328t-0.328-0.797zM4.75 2q0-0.625 0.438-1.062t1.062-0.438 1.062 0.438 0.438 1.062-0.438 1.062-1.062 0.438-1.062-0.438-0.438-1.062zM5.25 12q0-0.414 0.293-0.707t0.707-0.293 0.707 0.293 0.293 0.707-0.293 0.707-0.707 0.293-0.707-0.293-0.293-0.707zM8.875 10.5q0-0.359 0.258-0.617t0.617-0.258 0.617 0.258 0.258 0.617-0.258 0.617-0.617 0.258-0.617-0.258-0.258-0.617zM9.125 3.5q0-0.258 0.184-0.441t0.441-0.184 0.441 0.184 0.184 0.441-0.184 0.441-0.441 0.184-0.441-0.184-0.184-0.441zM10.5 7q0-0.312 0.219-0.531t0.531-0.219 0.531 0.219 0.219 0.531-0.219 0.531-0.531 0.219-0.531-0.219-0.219-0.531z" fill="#333333"></path>
</g>
<g transform="translate(356 0)">
	<path d="M0 7q0-0.75 0.008-1.172t0.066-1.066 0.176-1.152q0.125-0.57 0.539-0.961t0.969-0.453q1.734-0.195 5.242-0.195t5.242 0.195q0.555 0.062 0.973 0.453t0.543 0.961q0.109 0.508 0.168 1.152t0.066 1.066 0.008 1.172-0.008 1.172-0.066 1.066-0.176 1.152q-0.125 0.57-0.539 0.961t-0.969 0.453q-1.734 0.195-5.242 0.195t-5.242-0.195q-0.555-0.062-0.973-0.453t-0.543-0.961q-0.109-0.508-0.168-1.152t-0.066-1.066-0.008-1.172zM5 9.5q0 0.297 0.258 0.438 0.125 0.062 0.242 0.062 0.156 0 0.266-0.078l4-2.5q0.234-0.133 0.234-0.422t-0.234-0.422l-4-2.5q-0.242-0.156-0.508-0.016-0.258 0.141-0.258 0.438v5z" fill="#333333"></path>
</g>
<g transform="translate(161 14)">
	<path d="M0.344 10.867q0.273 0.031 0.609 0.031 1.758 0 3.133-1.078-0.82-0.016-1.469-0.504t-0.891-1.246q0.258 0.039 0.477 0.039 0.336 0 0.664-0.086-0.875-0.18-1.449-0.871t-0.574-1.605v-0.031q0.531 0.297 1.141 0.32-0.516-0.344-0.82-0.898t-0.305-1.203q0-0.688 0.344-1.273 0.945 1.164 2.301 1.863t2.902 0.777q-0.062-0.297-0.062-0.578 0-1.047 0.738-1.785t1.785-0.738q1.094 0 1.844 0.797 0.852-0.164 1.602-0.609-0.289 0.898-1.109 1.391 0.727-0.078 1.453-0.391-0.523 0.766-1.266 1.305 0.008 0.109 0.008 0.328 0 1.016-0.297 2.027t-0.902 1.941-1.441 1.645-2.016 1.141-2.523 0.426q-2.117 0-3.875-1.133z" fill="#ffffff"></path>
</g>

</svg>
