<svg xmlns="http://www.w3.org/2000/svg" viewBox="0 0 288 32" width="288" height="32"><g><g><path d="M2 4h28v5H2zm0 10h28v5H2zm0 10h28v5H2z"/></g></g><g transform="translate(32)"><g><g fill="#fff"><path d="M2 4h28v5H2zm0 10h28v5H2zm0 10h28v5H2z"/></g></g></g><g transform="translate(64)"><path d="M1 12.594c0-1.572.393-3.144.983-4.52S3.36 5.324 4.538 4.34s2.358-1.965 3.734-2.555S11.022 1 12.594 1s3.144.393 4.52.983 2.75 1.376 3.734 2.555 1.965 2.358 2.555 3.734c.59 1.376.983 2.948.983 4.52 0 2.358-.59 4.716-1.965 6.68l8.41 8.34L27.638 31l-8.362-8.385c-1.965 1.376-4.127 1.965-6.68 1.965-1.573 0-3.145-.393-4.52-.983-1.377-.59-2.752-1.376-3.735-2.555-.983-1.18-1.77-2.358-2.358-3.93C1.392 15.738 1 14.166 1 12.594zm4.323 0c0 1.965.786 3.734 2.162 5.306s3.144 2.162 5.306 2.162 3.736-.786 5.308-2.162c1.18-1.376 1.965-3.144 1.965-5.306s-.786-3.734-2.162-5.11c-1.57-1.57-3.143-2.16-5.305-2.16s-3.734.59-5.11 2.16-2.16 3.145-2.16 5.11z"/></g><g transform="translate(96)"><path d="M1 12.594c0-1.572.393-3.144.983-4.52S3.36 5.324 4.538 4.34s2.358-1.965 3.734-2.555S11.022 1 12.594 1s3.144.393 4.52.983 2.75 1.376 3.734 2.555 1.965 2.358 2.555 3.734c.59 1.376.983 2.948.983 4.52 0 2.358-.59 4.716-1.965 6.68l8.41 8.34L27.638 31l-8.362-8.385c-1.965 1.376-4.127 1.965-6.68 1.965-1.573 0-3.145-.393-4.52-.983-1.377-.59-2.752-1.376-3.735-2.555-.983-1.18-1.77-2.358-2.358-3.93C1.392 15.738 1 14.166 1 12.594zm4.323 0c0 1.965.786 3.734 2.162 5.306s3.144 2.162 5.306 2.162 3.736-.786 5.308-2.162c1.18-1.376 1.965-3.144 1.965-5.306s-.786-3.734-2.162-5.11c-1.57-1.57-3.143-2.16-5.305-2.16s-3.734.59-5.11 2.16-2.16 3.145-2.16 5.11z" fill="#fff"/></g><g transform="translate(128)"><g><g><path d="M30 24.402L24.402 30 16 21.597 7.595 30 2 24.402 10.403 16 2 7.595 7.596 2 16 10.403 24.4 2 30 7.596 21.597 16 30 24.4zm0 0" fill="#fff"/></g></g></g><g transform="translate(160)"><path d="M6 12h20L16 22 6 12z"/></g><g transform="translate(192)"><path d="M6 12h20L16 22 6 12z" fill="#fff"/></g><g transform="translate(224)"><path d="M26 22H6l10-10 10 10z"/></g><g transform="translate(256)"><path d="M26 22H6l10-10 10 10z" fill="#fff"/></g></svg>