<?xml version="1.0" encoding="iso-8859-1"?>
<!-- Generator: Adobe Illustrator 18.1.0, SVG Export Plug-In . SVG Version: 6.00 Build 0)  -->
<svg version="1.1" xmlns="http://www.w3.org/2000/svg" xmlns:xlink="http://www.w3.org/1999/xlink" x="0px" y="0px"
	 viewBox="0 0 32 32" style="enable-background:new 0 0 32 32;" xml:space="preserve">
<g id="basket">
	<path id="_x3C_Path_x3E__3_" d="M29.749,12h-6.33l-6.193-8.637c-0.275-0.275-0.688-0.457-1.101-0.457s-0.826-0.003-1.102,0.41
		L8.625,12H2.501C1.675,12,1,12.926,1,13.751c0,0.138,0,0.533,0,0.671l3.503,12.673C4.778,28.196,5.941,29,7.18,29h17.89
		c1.239,0,2.277-0.666,2.552-1.905L31,14.422c0-0.138,0-0.533,0-0.671C31,12.925,30.575,12,29.749,12z M12,26H8V16h4V26z
		 M16.125,6.203L20.597,12h-8.945L16.125,6.203z M18,26h-4V16h4V26z M24,26h-4V16h4V26z"/>
</g>
<g id="Layer_1">
</g>
</svg>
