<?xml version="1.0" encoding="iso-8859-1"?>
<!-- Generator: Adobe Illustrator 18.1.0, SVG Export Plug-In . SVG Version: 6.00 Build 0)  -->
<svg version="1.1" xmlns="http://www.w3.org/2000/svg" xmlns:xlink="http://www.w3.org/1999/xlink" x="0px" y="0px"
	 viewBox="0 0 32 32" style="enable-background:new 0 0 32 32;" xml:space="preserve">
<g id="calendar">
	<path d="M30,5h-1h-3V1h-5.984L20,5h-8V1H6v4H3H2C0.9,5,0,5.9,0,7v1v21v1c0,1.1,0.9,2,2,2h1h26h1c1.1,0,2-0.9,2-2v-1V8V7
		C32,5.9,31.1,5,30,5z M8,3h2v6H8V3z M11,29H3v-5h8V29z M11,23H3v-5h8V23z M11,17H3v-5h8V17z M20,29h-8v-5h8V29z M20,23h-8v-5h8V23z
		 M20,17h-8v-5h8V17z M22,3h2v6h-2V3z M29,29h-8v-5h8V29z M29,23h-8v-5h8V23z M29,17h-8v-5h8V17z"/>
</g>
<g id="Layer_1">
</g>
</svg>
