<?xml version="1.0" encoding="utf-8"?>
<!-- Generator: Adobe Illustrator 18.1.1, SVG Export Plug-In . SVG Version: 6.00 Build 0)  -->
<svg version="1.1" id="linkedin" xmlns="http://www.w3.org/2000/svg" xmlns:xlink="http://www.w3.org/1999/xlink" x="0px" y="0px"
	 width="32px" height="32px" viewBox="0 0 32 32" enable-background="new 0 0 32 32" xml:space="preserve">
<path d="M2,3c0-1,0.3-1.6,0.9-2.1S4.3,0,5.3,0s1.8,0.3,2.4,0.9C8.2,1.4,8.5,2.2,8.6,3c0,0.9-0.3,1.5-0.9,2.1C7,5.7,6.2,6,5.3,6l0,0
	C4.3,6,3.6,5.7,3,5.1C2.3,4.6,2,4,2,3L2,3z M2,27V8h7v19H2z M12,26.9C12,22,12,8,12,8h6v3h0.1c0.2,0,0.5-0.6,0.8-0.9
	c0.3-0.3,0.6-0.6,1-0.9s1-0.6,1.6-0.8s1.3-0.3,2.1-0.3c2.1,0,4,0.7,5.3,2.1s2.1,3.4,2.1,6.1V27h-6v-9.9c0-1.3-0.5-2.3-1-3
	S22.6,13,21.5,13c-0.8,0-1.5,0.2-2,0.6c-0.5,0.4-1,0.9-1.3,1.6c0,0.3-0.2,0.8-0.2,1.4V27L12,26.9L12,26.9z"/>
</svg>
