<?xml version="1.0" encoding="utf-8"?>
<!-- Generator: Adobe Illustrator 18.1.1, SVG Export Plug-In . SVG Version: 6.00 Build 0)  -->
<svg version="1.1" id="search" xmlns="http://www.w3.org/2000/svg" xmlns:xlink="http://www.w3.org/1999/xlink" x="0px" y="0px"
	 width="32px" height="32px" viewBox="0 0 32 32" enable-background="new 0 0 32 32" xml:space="preserve">
<path id="_x3C_Path_x3E_" d="M1,11.6C1,10,1.4,8.4,2,7.1s1.4-2.8,2.6-3.7s2.4-2,3.7-2.6S11,0,12.6,0s3.1,0.4,4.5,1s2.8,1.4,3.7,2.6
	s2,2.4,2.6,3.7c0.6,1.4,1,2.9,1,4.5c0,2.4-0.6,4.7-2,6.7l8.4,8.3L27.6,30l-8.4-8.4c-2,1.4-4.1,2-6.7,2c-1.6,0-3.1-0.4-4.5-1
	C6.7,22,5.3,21.2,4.3,20c-1-1.2-1.8-2.4-2.4-3.9C1.4,14.7,1,13.2,1,11.6L1,11.6z M5.3,11.6c0,2,0.8,3.7,2.2,5.3s3.1,2.2,5.3,2.2
	s3.7-0.8,5.3-2.2c1.2-1.4,2-3.1,2-5.3s-0.8-3.7-2.2-5.1c-1.6-1.6-3.1-2.2-5.3-2.2S8.9,4.9,7.5,6.5S5.3,9.6,5.3,11.6z"/>
</svg>
