<?xml version="1.0" encoding="iso-8859-1"?>
<!-- Generator: Adobe Illustrator 18.1.0, SVG Export Plug-In . SVG Version: 6.00 Build 0)  -->
<svg version="1.1" xmlns="http://www.w3.org/2000/svg" xmlns:xlink="http://www.w3.org/1999/xlink" x="0px" y="0px"
	 viewBox="0 0 32 32" style="enable-background:new 0 0 32 32;" xml:space="preserve">
<g id="linkedin">
	<path d="M2,6c0-1,0.304-1.57,0.912-2.142s1.402-0.846,2.381-0.846s1.764,0.293,2.354,0.865C8.237,4.45,8.538,5.176,8.55,6.049
		C8.562,6.911,8.264,7.592,7.656,8.17C7.048,8.748,6.249,9,5.258,9H5.223C4.256,9,3.476,8.724,2.886,8.146S2,7,2.001,6H2z M2,30V11
		h7v19H2z M12.001,29.919C12.026,25.015,12,11,12,11h6v3h0.074c0.248,0,0.502-0.626,0.762-0.921c0.26-0.295,0.61-0.558,1.05-0.902
		s0.978-0.583,1.615-0.774c0.637-0.191,1.346-0.272,2.127-0.272c2.117,0,3.987,0.704,5.274,2.099S31,16.675,31,19.367V30h-6v-9.932
		c0-1.291-0.473-2.302-0.975-3.032c-0.502-0.731-1.396-1.097-2.461-1.097c-0.78,0-1.488,0.212-2.014,0.636
		c-0.526,0.424-1.002,0.949-1.262,1.576C18.151,18.52,18,19.018,18,19.644V30h-6L12.001,29.919z"/>
</g>
<g id="Layer_1">
</g>
</svg>
