<?xml version="1.0" encoding="iso-8859-1"?>
<!-- Generator: Adobe Illustrator 18.1.0, SVG Export Plug-In . SVG Version: 6.00 Build 0)  -->
<svg version="1.1" xmlns="http://www.w3.org/2000/svg" xmlns:xlink="http://www.w3.org/1999/xlink" x="0px" y="0px"
	 viewBox="0 0 32 32" style="enable-background:new 0 0 32 32;" xml:space="preserve">
<g id="m-search">
	<path id="_x3C_Path_x3E_" d="M1,12.594c0-1.572,0.393-3.144,0.983-4.52s1.376-2.751,2.555-3.734s2.358-1.965,3.734-2.555
		S11.022,1,12.594,1s3.144,0.393,4.52,0.983s2.751,1.376,3.734,2.555s1.965,2.358,2.555,3.734c0.59,1.376,0.983,2.948,0.983,4.52
		c0,2.358-0.59,4.716-1.965,6.681l8.409,8.338L27.637,31l-8.362-8.385c-1.965,1.376-4.127,1.965-6.681,1.965
		c-1.572,0-3.144-0.393-4.52-0.983c-1.376-0.59-2.751-1.376-3.734-2.555c-0.983-1.179-1.769-2.358-2.358-3.93
		C1.393,15.738,1,14.166,1,12.594L1,12.594z M5.323,12.594c0,1.965,0.786,3.734,2.162,5.306s3.144,2.162,5.306,2.162
		s3.734-0.786,5.306-2.162c1.179-1.376,1.965-3.144,1.965-5.306s-0.786-3.734-2.162-5.109c-1.572-1.572-3.144-2.162-5.306-2.162
		S8.86,5.913,7.485,7.485S5.323,10.629,5.323,12.594z"/>
</g>
<g id="Layer_1">
</g>
</svg>
