<?xml version="1.0" encoding="iso-8859-1"?>
<!-- Generator: Adobe Illustrator 18.1.0, SVG Export Plug-In . SVG Version: 6.00 Build 0)  -->
<svg version="1.1" xmlns="http://www.w3.org/2000/svg" xmlns:xlink="http://www.w3.org/1999/xlink" x="0px" y="0px"
	 viewBox="0 0 32 32" style="enable-background:new 0 0 32 32;" xml:space="preserve">
<g id="twitter">
	<g id="icomoon-ignore_1_">
	</g>
	<g id="icomoon-ignore_2_">
	</g>
	<path style="fill:#FFFFFF;" d="M2,26.507c0.415,0.051,0.877,0.076,1.386,0.076c2.665,0,5.04-0.872,7.125-2.615
		c-1.244-0.025-2.357-0.433-3.341-1.223c-0.983-0.79-1.658-1.797-2.025-3.022c0.391,0.063,0.752,0.095,1.084,0.095
		c0.509,0,1.013-0.07,1.51-0.209c-1.327-0.29-2.494-0.995-3.364-2.113C3.504,16.379,3,15.08,3,13.602v-0.076
		c1,0.48,1.739,0.739,2.663,0.777c-0.782-0.556-1.369-1.283-1.831-2.179c-0.462-0.897-0.676-1.869-0.675-2.918
		c0-1.112,0.269-2.141,0.791-3.089c1.433,1.882,3.182,3.389,5.237,4.52s4.257,1.76,6.602,1.886c-0.095-0.48-0.141-0.948-0.141-1.402
		c0-1.693,0.56-3.136,1.68-4.33S19.798,5.001,21.385,5c1.659,0,3.056,0.644,4.192,1.933c1.291-0.265,2.505-0.758,3.642-1.478
		c-0.438,1.453-1.279,2.577-2.523,3.373C27.797,8.701,28.899,8.386,30,7.88c-0.794,1.238-1.753,2.293-2.878,3.164
		c0.012,0.177,0.018,0.442,0.018,0.796c0,1.642-0.225,3.281-0.675,4.918s-1.134,3.206-2.052,4.709
		c-0.918,1.503-2.011,2.833-3.278,3.989c-1.267,1.156-2.795,2.078-4.583,2.766c-1.788,0.688-3.701,1.033-5.738,1.033
		c-3.209,0-6.147-0.916-8.812-2.748L2,26.507z"/>
</g>
<g id="Layer_1">
</g>
</svg>
