<?xml version="1.0" encoding="utf-8"?>
<!-- Generator: Adobe Illustrator 18.1.1, SVG Export Plug-In . SVG Version: 6.00 Build 0)  -->
<svg version="1.1" id="location" xmlns="http://www.w3.org/2000/svg" xmlns:xlink="http://www.w3.org/1999/xlink" x="0px" y="0px"
	 width="32px" height="32px" viewBox="0 0 32 32" enable-background="new 0 0 32 32" xml:space="preserve">
<path d="M25,9c0,1.3-0.2,2.3-0.6,3.1L18,25.8c-0.2,0.4-0.5,0.7-0.8,0.9C16.8,26.9,16.4,27,16,27c-0.4,0-0.8-0.1-1.2-0.3
	c-0.4-0.2-0.6-0.5-0.8-0.9L7.6,12.1C7.2,11.3,7,10.3,7,9c0-2.5,0.9-4.6,2.6-6.4C11.4,0.9,13.5,0,16,0c2.5,0,4.6,0.9,6.4,2.6
	C24.1,4.4,25,6.5,25,9z M19.2,12.2c0.9-0.9,1.3-1.9,1.3-3.2s-0.4-2.3-1.3-3.2c-0.9-0.9-1.9-1.3-3.2-1.3c-1.2,0-2.3,0.4-3.2,1.3
	c-0.9,0.9-1.3,1.9-1.3,3.2s0.4,2.3,1.3,3.2c0.9,0.9,1.9,1.3,3.2,1.3C17.2,13.5,18.3,13.1,19.2,12.2z"/>
</svg>
