<?xml version="1.0" encoding="utf-8"?>
<!-- Generator: Adobe Illustrator 18.1.1, SVG Export Plug-In . SVG Version: 6.00 Build 0)  -->
<svg version="1.1" id="twitter" xmlns="http://www.w3.org/2000/svg" xmlns:xlink="http://www.w3.org/1999/xlink" x="0px" y="0px"
	 width="32px" height="32px" viewBox="0 0 32 32" enable-background="new 0 0 32 32" xml:space="preserve">
<path d="M2,23.5c0.4,0.1,0.9,0.1,1.4,0.1c2.7,0,5-0.9,7.1-2.6c-1.2,0-2.4-0.4-3.3-1.2c-1-0.8-1.7-1.8-2-3c0.4,0.1,0.8,0.1,1.1,0.1
	c0.5,0,1-0.1,1.5-0.2c-1.3-0.3-2.5-1-3.4-2.1S3,12.1,3,10.6v-0.1c1,0.5,1.7,0.7,2.7,0.8C4.9,10.7,4.3,10,3.8,9.1
	C3.4,8.2,3.2,7.3,3.2,6.2c0-1.1,0.3-2.1,0.8-3.1C5.4,5,7.1,6.5,9.2,7.6s4.3,1.8,6.6,1.9c-0.1-0.5-0.1-0.9-0.1-1.4
	c0-1.7,0.6-3.1,1.7-4.3S19.8,2,21.4,2c1.7,0,3.1,0.6,4.2,1.9c1.3-0.3,2.5-0.8,3.6-1.5c-0.4,1.5-1.3,2.6-2.5,3.4
	c1.1-0.1,2.2-0.4,3.3-0.9c-0.8,1.2-1.8,2.3-2.9,3.2c0,0.2,0,0.4,0,0.8c0,1.6-0.2,3.3-0.7,4.9s-1.1,3.2-2.1,4.7c-0.9,1.5-2,2.8-3.3,4
	c-1.3,1.2-2.8,2.1-4.6,2.8c-1.8,0.7-3.7,1-5.7,1C7.6,26.3,4.7,25.3,2,23.5L2,23.5z"/>
</svg>
