<svg xmlns="http://www.w3.org/2000/svg" viewBox="0 6.5 150 118.5"><path fill="#ffffff" d="M28.6 111.4c-7-.8-6.2-10.4-6.6-18.4-.4-8.2.4-53 .5-58.8.1-4.5-.5-12.8 4.2-13.7 2.2-.4 4.4-.5 4.2-1.9-.2-1.1-1.7-.9-5.5-.4-3.6.5-11.7.2-13.8.1-6.6-.3-10-.7-10.1.8-.1 1.3 1.1 1 3.3 1.1 5.2.2 6.2 4.6 6.4 13.8.4 23.1.1 54.8 0 59.1-.3 9.8.3 17.1-5.3 18.3-2.7.6-3.6.3-3.6 1.5 0 1.5 2.6.6 9.1 0 4.2-.4 8.8-.1 12.5.3 2.2.2 3.9.4 5.1.4 1.6 0 2.4-.4 2.4-1 0-1.1-1.1-1-2.8-1.2zm104.5-89C123.5 12.9 108.1 8 91.5 8h-.2c-5.4 0-9.3.6-20.7.6-7.4 0-11.4-.5-14.4-.7-3-.1-3.4.9-3.4 1.5 0 .5.1 1.4 1.5 1.4 7.1 0 8 3.4 8.2 6.1.2 2.1.3 7 .3 13.3C44 33.7 35.6 50.6 35.6 64c0 19.1 12.5 33.6 27 36.6 0 3.2-.1 6.9-.4 9.2-1.1 10.9-6.9 10.5-10.3 11.2-1.2.2-3.4 0-3.4 1.4 0 1 .9 1.5 2.6 1.5 2.3 0 13.5-1.1 18.5-1.3 5-.3 16.1.3 22.6.3 20.2 0 31.4-7.6 39.7-15.6 9.8-9.4 16.8-24.8 16.8-42.7s-6-32.6-15.6-42.2zM62.7 98.9c-9.5-2.1-18.5-13.6-18.6-33.3-.1-18.8 6.2-30.7 18.7-33.2.2 21.6 0 57.6-.1 66.5zm12.2-66c10.4 3 17.9 14.2 18 30.4.2 26.5-11.7 34.7-18.1 36-.1-13.4-.2-53.8.1-66.4zm46.3 73.4c-5.3 4.9-13.5 13.1-29.9 13.1-16.8 0-16.5-12.5-16.4-18.5 9.8-.8 26.9-13.6 26.8-35.5-.1-19-14.8-31.9-26.6-34.7v-.3c0-6.3.2-14.3.3-16.2.1-1.9.4-1.8 1.4-1.9 1.3-.2 9.1-.8 11.8-.8h2.7c14.1.5 23.2 5 29.1 10.9 6.2 6.2 14.9 18.2 14.9 43.3 0 25.1-9.1 36-14.1 40.6z"/></svg>