<svg viewBox="0 0 32 32" style="display: none;" xmlns="http://www.w3.org/2000/svg"><symbol viewBox="0 0 32 32" id="basket"><title>basket</title> <path id="basket-_x3C_Path_x3E__3_" d="M29.7,9.1h-6.3l-6.2-8.6C16.9,0.2,16.5,0,16.1,0S15.3,0,15,0.4L8.6,9.1H2.5C1.7,9.1,1,10,1,10.9
	c0,0.1,0,0.5,0,0.7l3.5,12.7c0.3,1,1.4,1.8,2.7,1.8h17.9c1.2,0,2.3-0.7,2.6-1.9L31,11.5c0-0.1,0-0.5,0-0.7C31,10,30.6,9.1,29.7,9.1z
	 M12,23.1H8v-10h4V23.1z M16.1,3.3l4.5,5.8h-8.9L16.1,3.3z M18,23.1h-4v-10h4V23.1z M24,23.1h-4v-10h4V23.1z"/> </symbol><symbol viewBox="0 0 32 32" id="calendar"><title>calendar</title> <path d="M30,3h-1h-3V0h-6l0,3h-8V0H6v3H3H2C0.9,3,0,3.9,0,5v1v19v1c0,1.1,0.9,2,2,2h1h26h1c1.1,0,2-0.9,2-2v-1V6V5
	C32,3.9,31.1,3,30,3z M8,2h2v4H8V2z M11,25H3v-5h8V25z M11,19H3v-5h8V19z M11,13H3V8h8V13z M20,25h-8v-5h8V25z M20,19h-8v-5h8V19z
	 M20,13h-8V8h8V13z M22,2h2v4h-2V2z M29,25h-8v-5h8V25z M29,19h-8v-5h8V19z M29,13h-8V8h8V13z"/> </symbol><symbol viewBox="0 0 32 32" id="facebook"><title>facebook</title> <path d="M8,15.2V11h4V6.6c0-2.1,1-3.7,2.2-4.9S17,0,19,0c1.6,0,3,0.1,4,0.2V5h-2.6c-1,0-1.9,0-2.2,0.4S18,6.3,18,7.1V11h4.9l-0.7,4
	H18v13h-6V15H8V15.2z"/> </symbol><symbol viewBox="0 0 32 32" id="home"><title>home</title> <polygon points="4,15.7 4,28 12,28 12,17 20,17 20,28 28,28 28,15.7 16,6.4 "/> <polygon points="16,0 0,13 2,15 16,4 30,15 32,13 "/> </symbol><symbol viewBox="0 0 32 32" id="linkedin"><title>linkedin</title> <path d="M2,3c0-1,0.3-1.6,0.9-2.1S4.3,0,5.3,0s1.8,0.3,2.4,0.9C8.2,1.4,8.5,2.2,8.6,3c0,0.9-0.3,1.5-0.9,2.1C7,5.7,6.2,6,5.3,6l0,0
	C4.3,6,3.6,5.7,3,5.1C2.3,4.6,2,4,2,3L2,3z M2,27V8h7v19H2z M12,26.9C12,22,12,8,12,8h6v3h0.1c0.2,0,0.5-0.6,0.8-0.9
	c0.3-0.3,0.6-0.6,1-0.9s1-0.6,1.6-0.8s1.3-0.3,2.1-0.3c2.1,0,4,0.7,5.3,2.1s2.1,3.4,2.1,6.1V27h-6v-9.9c0-1.3-0.5-2.3-1-3
	S22.6,13,21.5,13c-0.8,0-1.5,0.2-2,0.6c-0.5,0.4-1,0.9-1.3,1.6c0,0.3-0.2,0.8-0.2,1.4V27L12,26.9L12,26.9z"/> </symbol><symbol viewBox="0 0 32 32" id="location"><title>location</title> <path d="M25,9c0,1.3-0.2,2.3-0.6,3.1L18,25.8c-0.2,0.4-0.5,0.7-0.8,0.9C16.8,26.9,16.4,27,16,27c-0.4,0-0.8-0.1-1.2-0.3
	c-0.4-0.2-0.6-0.5-0.8-0.9L7.6,12.1C7.2,11.3,7,10.3,7,9c0-2.5,0.9-4.6,2.6-6.4C11.4,0.9,13.5,0,16,0c2.5,0,4.6,0.9,6.4,2.6
	C24.1,4.4,25,6.5,25,9z M19.2,12.2c0.9-0.9,1.3-1.9,1.3-3.2s-0.4-2.3-1.3-3.2c-0.9-0.9-1.9-1.3-3.2-1.3c-1.2,0-2.3,0.4-3.2,1.3
	c-0.9,0.9-1.3,1.9-1.3,3.2s0.4,2.3,1.3,3.2c0.9,0.9,1.9,1.3,3.2,1.3C17.2,13.5,18.3,13.1,19.2,12.2z"/> </symbol><symbol viewBox="0 0 32 32" id="menu"><title>menu</title> <rect x="2" y="1" width="28" height="5"/> <rect x="2" y="11" width="28" height="5"/> <rect x="2" y="21" width="28" height="5"/> </symbol><symbol viewBox="0 0 32 32" id="search"><title>search</title> <path id="search-_x3C_Path_x3E_" d="M1,11.6C1,10,1.4,8.4,2,7.1s1.4-2.8,2.6-3.7s2.4-2,3.7-2.6S11,0,12.6,0s3.1,0.4,4.5,1s2.8,1.4,3.7,2.6
	s2,2.4,2.6,3.7c0.6,1.4,1,2.9,1,4.5c0,2.4-0.6,4.7-2,6.7l8.4,8.3L27.6,30l-8.4-8.4c-2,1.4-4.1,2-6.7,2c-1.6,0-3.1-0.4-4.5-1
	C6.7,22,5.3,21.2,4.3,20c-1-1.2-1.8-2.4-2.4-3.9C1.4,14.7,1,13.2,1,11.6L1,11.6z M5.3,11.6c0,2,0.8,3.7,2.2,5.3s3.1,2.2,5.3,2.2
	s3.7-0.8,5.3-2.2c1.2-1.4,2-3.1,2-5.3s-0.8-3.7-2.2-5.1c-1.6-1.6-3.1-2.2-5.3-2.2S8.9,4.9,7.5,6.5S5.3,9.6,5.3,11.6z"/> </symbol><symbol viewBox="0 0 32 32" id="time"><title>time</title> <path d="M27.3,6.5c1.2,2,1.7,4.2,1.7,6.5s-0.6,4.5-1.7,6.5c-1.2,2-2.7,3.6-4.7,4.7c-2,1.2-4.2,1.7-6.5,1.7c-2.4,0-4.5-0.6-6.5-1.7
	c-2-1.2-3.6-2.7-4.7-4.7C3.6,17.5,3,15.4,3,13s0.6-4.5,1.7-6.5c1.2-2,2.7-3.6,4.7-4.7C11.5,0.6,13.6,0,16,0c2.4,0,4.5,0.6,6.5,1.7
	C24.5,2.9,26.1,4.5,27.3,6.5z"/> <path fill="#FFFFFF" d="M18.2,7v7.6c0,0.2-0.1,0.3-0.2,0.4c-0.1,0.1-0.2,0.2-0.4,0.2h-5.4c-0.2,0-0.3-0.1-0.4-0.2
	c-0.1-0.1-0.2-0.2-0.2-0.4v-1.1c0-0.2,0.1-0.3,0.2-0.4c0.1-0.1,0.2-0.2,0.4-0.2H16V7c0-0.2,0.1-0.3,0.2-0.4c0.1-0.1,0.2-0.2,0.4-0.2
	h1.1c0.2,0,0.3,0.1,0.4,0.2C18.1,6.8,18.2,6.9,18.2,7z"/> </symbol><symbol viewBox="0 0 32 32" id="times"><title>times</title> <polygon points="30,5.6 24.4,0 16,8.4 7.6,0 2,5.6 10.4,14 2,22.4 7.6,28 16,19.6 24.4,28 30,22.4 21.6,14 "/> </symbol><symbol viewBox="0 0 32 32" id="trash"><title>trash</title> <path d="M28,4h-6l-0.8-2.4c-0.2-0.4-0.5-0.8-0.9-1.1C19.7,0.2,19.3,0,18.8,0h-5.6c-0.5,0-0.9,0.2-1.4,0.5c-0.5,0.3-0.8,0.7-0.9,1.1
	L10,4H4v2h2l2.8,18.6c0.1,0.8,0.8,1.4,1.6,1.4h11.2c0.8,0,1.5-0.6,1.6-1.4L26,6h2V4z M12.1,4l0.9-1.8C13,2.1,13.1,2,13.2,2h5.6
	c0.1,0,0.2,0.1,0.3,0.2L19.9,4H12.1z"/> </symbol><symbol viewBox="0 0 32 32" id="triangle-down"><title>triangle-down</title> <path id="triangle-down-_x3C_Path_x3E__1_" d="M6,11h20L16,21L6,11z"/> </symbol><symbol viewBox="0 0 32 32" id="triangle-left"><title>triangle-left</title> <path id="triangle-left-_x3C_Path_x3E__5_" d="M19,24V4L9,14L19,24z"/> </symbol><symbol viewBox="0 0 32 32" id="triangle-right"><title>triangle-right</title> <path id="triangle-right-_x3C_Path_x3E__4_" d="M12,24V4l10,10L12,24z"/> </symbol><symbol viewBox="0 0 32 32" id="triangle-up"><title>triangle-up</title> <path id="triangle-up-_x3C_Path_x3E__2_" d="M26,20H6l10-10L26,20z"/> </symbol><symbol viewBox="0 0 32 32" id="twitter"><title>twitter</title> <path d="M2,23.5c0.4,0.1,0.9,0.1,1.4,0.1c2.7,0,5-0.9,7.1-2.6c-1.2,0-2.4-0.4-3.3-1.2c-1-0.8-1.7-1.8-2-3c0.4,0.1,0.8,0.1,1.1,0.1
	c0.5,0,1-0.1,1.5-0.2c-1.3-0.3-2.5-1-3.4-2.1S3,12.1,3,10.6v-0.1c1,0.5,1.7,0.7,2.7,0.8C4.9,10.7,4.3,10,3.8,9.1
	C3.4,8.2,3.2,7.3,3.2,6.2c0-1.1,0.3-2.1,0.8-3.1C5.4,5,7.1,6.5,9.2,7.6s4.3,1.8,6.6,1.9c-0.1-0.5-0.1-0.9-0.1-1.4
	c0-1.7,0.6-3.1,1.7-4.3S19.8,2,21.4,2c1.7,0,3.1,0.6,4.2,1.9c1.3-0.3,2.5-0.8,3.6-1.5c-0.4,1.5-1.3,2.6-2.5,3.4
	c1.1-0.1,2.2-0.4,3.3-0.9c-0.8,1.2-1.8,2.3-2.9,3.2c0,0.2,0,0.4,0,0.8c0,1.6-0.2,3.3-0.7,4.9s-1.1,3.2-2.1,4.7c-0.9,1.5-2,2.8-3.3,4
	c-1.3,1.2-2.8,2.1-4.6,2.8c-1.8,0.7-3.7,1-5.7,1C7.6,26.3,4.7,25.3,2,23.5L2,23.5z"/> </symbol></svg>