<?xml version="1.0" encoding="utf-8"?>
<svg version="1.1" id="Layer_1" xmlns="http://www.w3.org/2000/svg" xmlns:xlink="http://www.w3.org/1999/xlink" x="0px" y="0px"
	 viewBox="0 6.5 150 118.5" enable-background="new 0 6.5 150 118.5" xml:space="preserve">
<g>
	<path d="M28.6,111.4c-7-0.8-6.2-10.4-6.6-18.4c-0.4-8.2,0.4-53,0.5-58.8c0.1-4.5-0.5-12.8,4.2-13.7c2.2-0.4,4.4-0.5,4.2-1.9
		c-0.2-1.1-1.7-0.9-5.5-0.4c-3.6,0.5-11.7,0.2-13.8,0.1C5,18,1.6,17.6,1.5,19.1c-0.1,1.3,1.1,1,3.3,1.1C10,20.4,11,24.8,11.2,34
		c0.4,23.1,0.1,54.8,0,59.1c-0.3,9.8,0.3,17.1-5.3,18.3c-2.7,0.6-3.6,0.3-3.6,1.5c0,1.5,2.6,0.6,9.1,0c4.2-0.4,8.8-0.1,12.5,0.3
		c2.2,0.2,3.9,0.4,5.1,0.4c1.6,0,2.4-0.4,2.4-1C31.4,111.5,30.3,111.6,28.6,111.4z"/>
	<path d="M133.1,22.4C123.5,12.9,108.1,8,91.5,8c-0.1,0-0.1,0-0.2,0C85.9,8,82,8.6,70.6,8.6c-7.4,0-11.4-0.5-14.4-0.7
		c-3-0.1-3.4,0.9-3.4,1.5c0,0.5,0.1,1.4,1.5,1.4c7.1,0,8,3.4,8.2,6.1c0.2,2.1,0.3,7,0.3,13.3C44,33.7,35.6,50.6,35.6,64
		c0,19.1,12.5,33.6,27,36.6c0,3.2-0.1,6.9-0.4,9.2c-1.1,10.9-6.9,10.5-10.3,11.2c-1.2,0.2-3.4,0-3.4,1.4c0,1,0.9,1.5,2.6,1.5
		c2.3,0,13.5-1.1,18.5-1.3c5-0.3,16.1,0.3,22.6,0.3c20.2,0,31.4-7.6,39.7-15.6c9.8-9.4,16.8-24.8,16.8-42.7S142.7,32,133.1,22.4z
		 M62.7,98.9c-9.5-2.1-18.5-13.6-18.6-33.3C44,46.8,50.3,34.9,62.8,32.4C63,54,62.8,90,62.7,98.9z M74.9,32.9
		c10.4,3,17.9,14.2,18,30.4c0.2,26.5-11.7,34.7-18.1,36C74.7,85.9,74.6,45.5,74.9,32.9z M121.2,106.3c-5.3,4.9-13.5,13.1-29.9,13.1
		c-16.8,0-16.5-12.5-16.4-18.5c9.8-0.8,26.9-13.6,26.8-35.5c-0.1-19-14.8-31.9-26.6-34.7c0-0.1,0-0.2,0-0.3c0-6.3,0.2-14.3,0.3-16.2
		c0.1-1.9,0.4-1.8,1.4-1.9c1.3-0.2,9.1-0.8,11.8-0.8c0.9,0,1.8,0,2.7,0c14.1,0.5,23.2,5,29.1,10.9c6.2,6.2,14.9,18.2,14.9,43.3
		C135.3,90.8,126.2,101.7,121.2,106.3z"/>
</g>
</svg>
