<?xml version="1.0" encoding="utf-8"?>
<!-- Generator: Adobe Illustrator 18.1.1, SVG Export Plug-In . SVG Version: 6.00 Build 0)  -->
<svg version="1.1" id="calendar" xmlns="http://www.w3.org/2000/svg" xmlns:xlink="http://www.w3.org/1999/xlink" x="0px" y="0px"
	 width="32px" height="32px" viewBox="0 0 32 32" enable-background="new 0 0 32 32" xml:space="preserve">
<path d="M30,3h-1h-3V0h-6l0,3h-8V0H6v3H3H2C0.9,3,0,3.9,0,5v1v19v1c0,1.1,0.9,2,2,2h1h26h1c1.1,0,2-0.9,2-2v-1V6V5
	C32,3.9,31.1,3,30,3z M8,2h2v4H8V2z M11,25H3v-5h8V25z M11,19H3v-5h8V19z M11,13H3V8h8V13z M20,25h-8v-5h8V25z M20,19h-8v-5h8V19z
	 M20,13h-8V8h8V13z M22,2h2v4h-2V2z M29,25h-8v-5h8V25z M29,19h-8v-5h8V19z M29,13h-8V8h8V13z"/>
</svg>
