<?xml version="1.0" encoding="utf-8"?>
<!-- Generator: Adobe Illustrator 18.1.1, SVG Export Plug-In . SVG Version: 6.00 Build 0)  -->
<svg version="1.1" id="time" xmlns="http://www.w3.org/2000/svg" xmlns:xlink="http://www.w3.org/1999/xlink" x="0px" y="0px"
	 width="32px" height="32px" viewBox="0 0 32 32" enable-background="new 0 0 32 32" xml:space="preserve">
<path d="M27.3,6.5c1.2,2,1.7,4.2,1.7,6.5s-0.6,4.5-1.7,6.5c-1.2,2-2.7,3.6-4.7,4.7c-2,1.2-4.2,1.7-6.5,1.7c-2.4,0-4.5-0.6-6.5-1.7
	c-2-1.2-3.6-2.7-4.7-4.7C3.6,17.5,3,15.4,3,13s0.6-4.5,1.7-6.5c1.2-2,2.7-3.6,4.7-4.7C11.5,0.6,13.6,0,16,0c2.4,0,4.5,0.6,6.5,1.7
	C24.5,2.9,26.1,4.5,27.3,6.5z"/>
<path fill="#FFFFFF" d="M18.2,7v7.6c0,0.2-0.1,0.3-0.2,0.4c-0.1,0.1-0.2,0.2-0.4,0.2h-5.4c-0.2,0-0.3-0.1-0.4-0.2
	c-0.1-0.1-0.2-0.2-0.2-0.4v-1.1c0-0.2,0.1-0.3,0.2-0.4c0.1-0.1,0.2-0.2,0.4-0.2H16V7c0-0.2,0.1-0.3,0.2-0.4c0.1-0.1,0.2-0.2,0.4-0.2
	h1.1c0.2,0,0.3,0.1,0.4,0.2C18.1,6.8,18.2,6.9,18.2,7z"/>
</svg>
